<svg xmlns="http://www.w3.org/2000/svg" width="24" height="24" viewBox="0 0 24 24" fill="none">
  <g clip-path="url(#clip0_115_40)">
    <path d="M13.5933 18.44L20 12L13.5933 5.56001C13.5355 5.48403 13.462 5.42137 13.3778 5.37627C13.2936 5.33116 13.2007 5.30468 13.1054 5.29859C13.0101 5.29251 12.9146 5.30698 12.8253 5.34102C12.7361 5.37506 12.6552 5.42787 12.5882 5.49588C12.5211 5.5639 12.4695 5.64552 12.4367 5.73523C12.404 5.82494 12.3909 5.92064 12.3983 6.01586C12.4057 6.11107 12.4336 6.20357 12.4799 6.28711C12.5262 6.37064 12.5899 6.44324 12.6667 6.50001L17.46 11.3333L4.70667 11.3333C4.52986 11.3333 4.36029 11.4036 4.23526 11.5286C4.11024 11.6536 4.04 11.8232 4.04 12C4.04 12.1768 4.11024 12.3464 4.23526 12.4714C4.36029 12.5964 4.52986 12.6667 4.70667 12.6667L17.46 12.6667L12.6667 17.5C12.542 17.6256 12.4723 17.7955 12.473 17.9724C12.4736 18.1493 12.5445 18.3187 12.67 18.4433C12.7955 18.568 12.9654 18.6377 13.1424 18.6371C13.3193 18.6364 13.4887 18.5655 13.6133 18.44H13.5933Z" fill="black"/>
  </g>
  <defs>
    <clipPath id="clip0_115_40">
      <rect width="24" height="24" fill="white" transform="matrix(0 1 -1 0 24 0)"/>
    </clipPath>
  </defs>
</svg>