<svg xmlns="http://www.w3.org/2000/svg" width="17" height="16" viewBox="0 0 17 16" fill="none">
  <path d="M8.094 7.66666C7.64678 7.66666 7.21788 7.49107 6.90165 7.17851C6.58543 6.86595 6.40777 6.44202 6.40777 5.99999C6.40777 5.55797 6.58543 5.13404 6.90165 4.82148C7.21788 4.50892 7.64678 4.33333 8.094 4.33333C8.54121 4.33333 8.97011 4.50892 9.28634 4.82148C9.60257 5.13404 9.78023 5.55797 9.78023 5.99999C9.78023 6.21886 9.73661 6.43559 9.65187 6.6378C9.56713 6.84001 9.44292 7.02374 9.28634 7.17851C9.12976 7.33327 8.94387 7.45604 8.73929 7.53979C8.53471 7.62355 8.31544 7.66666 8.094 7.66666ZM8.094 1.33333C6.84179 1.33333 5.64088 1.82499 4.75544 2.70016C3.86999 3.57533 3.37256 4.76232 3.37256 5.99999C3.37256 9.49999 8.094 14.6667 8.094 14.6667C8.094 14.6667 12.8154 9.49999 12.8154 5.99999C12.8154 4.76232 12.318 3.57533 11.4326 2.70016C10.5471 1.82499 9.3462 1.33333 8.094 1.33333Z" fill="#444444"/>
</svg>