<svg xmlns="http://www.w3.org/2000/svg" width="18" height="17" viewBox="0 0 18 17" fill="none">
  <path d="M7.99577 1.39664C9.09071 1.39652 10.163 1.70842 11.0871 2.29582C12.0111 2.88322 12.7486 3.72178 13.2132 4.71326C13.6778 5.70475 13.8503 6.8081 13.7103 7.89407C13.5704 8.98003 13.1239 10.0036 12.4231 10.845L16.3966 14.8184C16.4655 14.8824 16.5159 14.9639 16.5425 15.0541C16.569 15.1444 16.5707 15.2401 16.5474 15.3313C16.5241 15.4224 16.4767 15.5056 16.4101 15.572C16.3435 15.6385 16.2602 15.6857 16.169 15.7088C16.0779 15.7321 15.9823 15.7305 15.8921 15.7041C15.8019 15.6777 15.7204 15.6274 15.6564 15.5586L11.6829 11.5852C10.9719 12.1772 10.1288 12.5893 9.22483 12.7865C8.32089 12.9838 7.38274 12.9604 6.48973 12.7184C5.59673 12.4765 4.77513 12.023 4.09445 11.3963C3.41377 10.7697 2.89403 9.9883 2.57918 9.1183C2.26434 8.24831 2.16366 7.31528 2.28566 6.39815C2.40765 5.48101 2.74874 4.60675 3.28007 3.84932C3.81139 3.09188 4.51733 2.47355 5.33815 2.04663C6.15898 1.61971 7.07055 1.39676 7.99577 1.39664ZM3.28208 7.15781C3.28208 7.77682 3.404 8.38977 3.64089 8.96166C3.87777 9.53355 4.22498 10.0532 4.66269 10.4909C5.10039 10.9286 5.62002 11.2758 6.19192 11.5127C6.76381 11.7496 7.37676 11.8715 7.99577 11.8715C8.61478 11.8715 9.22773 11.7496 9.79962 11.5127C10.3715 11.2758 10.8911 10.9286 11.3288 10.4909C11.7666 10.0532 12.1138 9.53355 12.3506 8.96166C12.5875 8.38977 12.7095 7.77682 12.7095 7.15781C12.7095 5.90766 12.2128 4.70872 11.3288 3.82473C10.4449 2.94074 9.24591 2.44412 7.99577 2.44412C6.74562 2.44412 5.54667 2.94074 4.66269 3.82473C3.7787 4.70872 3.28208 5.90766 3.28208 7.15781Z" fill="#444444"/>
</svg>