<svg width="24" height="24" viewBox="0 0 24 24" fill="none" xmlns="http://www.w3.org/2000/svg">
<g id="octicon:search-24">
<path id="Vector" d="M10.25 2C11.818 1.99983 13.3535 2.44648 14.6767 3.28763C16 4.12878 17.0561 5.3296 17.7214 6.74941C18.3867 8.16922 18.6337 9.74922 18.4333 11.3043C18.2329 12.8594 17.5935 14.3252 16.59 15.53L22.28 21.22C22.3787 21.3117 22.4509 21.4283 22.4889 21.5575C22.5269 21.6868 22.5294 21.8239 22.496 21.9544C22.4626 22.0849 22.3947 22.204 22.2993 22.2992C22.2039 22.3943 22.0846 22.462 21.954 22.495C21.8236 22.5284 21.6867 22.5261 21.5575 22.4883C21.4283 22.4504 21.3118 22.3785 21.22 22.28L15.53 16.59C14.5118 17.4378 13.3045 18.0278 12.01 18.3103C10.7156 18.5928 9.37216 18.5594 8.09337 18.2128C6.81459 17.8663 5.63807 17.2169 4.66333 16.3195C3.6886 15.4222 2.94432 14.3033 2.49347 13.0574C2.04261 11.8116 1.89843 10.4755 2.07314 9.16216C2.24784 7.84883 2.73627 6.59689 3.49713 5.51224C4.25799 4.42759 5.26889 3.54214 6.44431 2.93079C7.61973 2.31944 8.92511 2.00017 10.25 2ZM3.50001 10.25C3.50001 11.1364 3.6746 12.0142 4.01382 12.8331C4.35304 13.6521 4.85024 14.3962 5.47704 15.023C6.10384 15.6498 6.84795 16.147 7.6669 16.4862C8.48585 16.8254 9.36359 17 10.25 17C11.1364 17 12.0142 16.8254 12.8331 16.4862C13.6521 16.147 14.3962 15.6498 15.023 15.023C15.6498 14.3962 16.147 13.6521 16.4862 12.8331C16.8254 12.0142 17 11.1364 17 10.25C17 8.45979 16.2889 6.7429 15.023 5.47703C13.7571 4.21116 12.0402 3.5 10.25 3.5C8.4598 3.5 6.74291 4.21116 5.47704 5.47703C4.21117 6.7429 3.50001 8.45979 3.50001 10.25Z" fill="#444444"/>
</g>
</svg>
